<?xml version="1.0" encoding="utf-8"?>
<!-- Generator: Adobe Illustrator 25.2.3, SVG Export Plug-In . SVG Version: 6.00 Build 0)  -->
<svg version="1.1" id="Layer_1" xmlns="http://www.w3.org/2000/svg" xmlns:xlink="http://www.w3.org/1999/xlink" x="0px" y="0px"
	width="60px" height="60px"
	viewBox="0 0 100 100" style="enable-background:new 0 0 100 100;" xml:space="preserve">
<style type="text/css">
	.st0{fill:url(#SVGID_1_);}
</style>
<g id="duo">
	<g id="g48" transform="translate(-230.261 126.629)">
		<path id="path2" d="M264.4-64.2V-66c-0.4,0.5-1.9,2.4-5.2,2.4c-3.9,0-8.3-2.7-8.3-9.6c0-6.7,4.1-10.3,8.5-10.3
			c1.5,0,3.8,0.6,5,2.1v-9.3h4.5v26.5H264.4z M260-67.7c2.4,0,4.4-2,4.4-5.5c0-2.9-0.8-6.1-4.3-6.1c-2.8,0-4.5,2.5-4.5,5.7
			C255.5-70.9,256.7-67.7,260-67.7z"/>
		<path id="path4" d="M284.7-64.2v-1.9c-1.6,1.6-3.8,2.4-6.1,2.4c-3.1,0-4.7-1.4-5.4-2.5c-1-1.5-1.1-3.2-1.1-5V-83h4.5v10.8
			c0,1.8,0.5,4.2,3.7,4.2c1.5,0,2.9-0.8,3.6-2.1c0.7-1.3,0.7-3.1,0.7-4.5V-83h4.5v18.8H284.7z"/>
		<path id="path6" d="M301.7-63.6c-6.8,0-9.8-5.4-9.8-10c0-4.5,3-9.9,9.6-9.9c4.1,0,9.6,2.7,9.7,9.9C311.2-68.6,308-63.6,301.7-63.6
			M301.7-67.8c3.3,0,4.8-2.8,4.8-5.7c0-3-1.6-6-5.1-6c-2.6,0-4.8,1.9-4.8,5.7C296.6-70.5,298.4-67.8,301.7-67.8"/>
	</g>
</g>
<g>
	<linearGradient id="SVGID_1_" gradientUnits="userSpaceOnUse" x1="24.9958" y1="93.3085" x2="75.0042" y2="6.6915">
		<stop offset="0" style="stop-color:#006268"/>
		<stop offset="0.6989" style="stop-color:#009EC1"/>
		<stop offset="0.737" style="stop-color:#23ABCA"/>
		<stop offset="0.8682" style="stop-color:#98D8E6"/>
		<stop offset="0.9585" style="stop-color:#E2F4F8"/>
		<stop offset="1" style="stop-color:#FFFFFF"/>
	</linearGradient>
	<path class="st0" d="M50,2c26.5,0,48,21.5,48,48S76.5,98,50,98S2,76.5,2,50S23.5,2,50,2 M50,0C22.4,0,0,22.4,0,50s22.4,50,50,50
		s50-22.4,50-50S77.6,0,50,0L50,0z"/>
		<animateTransform attributeName="transform"
		attributeType="XML"
		type="rotate"
		from="0 50 50"
		to="360 50 50"
		dur="2s"
		repeatCount="indefinite"/>
</g>
</svg>
